<?xml version="1.0" encoding="UTF-8"?><svg xmlns="http://www.w3.org/2000/svg" xmlns:xlink="http://www.w3.org/1999/xlink" fill-opacity="1" color-rendering="auto" color-interpolation="auto" text-rendering="auto" stroke="black" stroke-linecap="square" width="409" stroke-miterlimit="10" shape-rendering="auto" stroke-opacity="1" fill="black" stroke-dasharray="none" font-weight="normal" stroke-width="1" height="316" font-family="'Dialog'" font-style="normal" stroke-linejoin="miter" font-size="12px" stroke-dashoffset="0" image-rendering="auto">
  <!--Generated by ySVG 2.5-->
  <defs id="genericDefs"/>
  <g>
    <defs id="defs1">
      <clipPath clipPathUnits="userSpaceOnUse" id="clipPath1">
        <path d="M0 0 L409 0 L409 316 L0 316 L0 0 Z"/>
      </clipPath>
      <clipPath clipPathUnits="userSpaceOnUse" id="clipPath2">
        <path d="M525 165 L934 165 L934 481 L525 481 L525 165 Z"/>
      </clipPath>
      <clipPath clipPathUnits="userSpaceOnUse" id="clipPath3">
        <path d="M-245.5431 28.4147 L-245.5431 -380.5853 L70.4569 -380.5853 L70.4569 28.4147 L-245.5431 28.4147 Z"/>
      </clipPath>
    </defs>
    <g fill="rgb(255,204,0)" text-rendering="geometricPrecision" shape-rendering="geometricPrecision" transform="matrix(1,0,0,1,-525,-165)" stroke="rgb(255,204,0)">
      <circle r="15" clip-path="url(#clipPath2)" cx="540.6206" cy="420" stroke="none"/>
    </g>
    <g font-size="18px" stroke-linecap="butt" transform="matrix(0,1,-1,0,28.4147,245.5431)" text-rendering="geometricPrecision" font-family="'Fira Sans'" shape-rendering="geometricPrecision" stroke-miterlimit="1.45">
      <text x="2" xml:space="preserve" y="18.8208" clip-path="url(#clipPath3)" stroke="none">: )</text>
    </g>
    <g fill="rgb(255,153,0)" text-rendering="geometricPrecision" shape-rendering="geometricPrecision" transform="matrix(1,0,0,1,-525,-165)" stroke="rgb(255,153,0)">
      <rect x="672.048" width="52.6" height="25.4" y="240.1904" clip-path="url(#clipPath2)" stroke="none"/>
    </g>
    <g text-rendering="geometricPrecision" stroke-miterlimit="1.45" shape-rendering="geometricPrecision" font-family="sans-serif" transform="matrix(1,0,0,1,-525,-165)" stroke-linecap="butt">
      <text x="683.1644" xml:space="preserve" y="257.5439" clip-path="url(#clipPath2)" stroke="none">clang</text>
    </g>
    <g fill="white" text-rendering="geometricPrecision" shape-rendering="geometricPrecision" transform="matrix(1,0,0,1,-525,-165)" stroke="white">
      <rect x="678.0974" width="52.6" height="25.4" y="189.56" clip-path="url(#clipPath2)" stroke="none"/>
    </g>
    <g stroke-linecap="butt" transform="matrix(1,0,0,1,-525,-165)" fill="gray" text-rendering="geometricPrecision" shape-rendering="geometricPrecision" stroke="gray" stroke-miterlimit="1.45">
      <rect fill="none" x="678.0974" width="52.6" height="25.4" y="189.56" clip-path="url(#clipPath2)"/>
    </g>
    <g fill="white" text-rendering="geometricPrecision" shape-rendering="geometricPrecision" transform="matrix(1,0,0,1,-525,-165)" stroke="white">
      <rect x="672.048" width="52.6" height="25.4" y="195.28" clip-path="url(#clipPath2)" stroke="none"/>
    </g>
    <g stroke-linecap="butt" transform="matrix(1,0,0,1,-525,-165)" fill="gray" text-rendering="geometricPrecision" shape-rendering="geometricPrecision" stroke="gray" stroke-miterlimit="1.45">
      <rect fill="none" x="672.048" width="52.6" height="25.4" y="195.28" clip-path="url(#clipPath2)"/>
    </g>
    <g fill="white" text-rendering="geometricPrecision" shape-rendering="geometricPrecision" transform="matrix(1,0,0,1,-525,-165)" stroke="white">
      <rect x="666.6064" width="52.6" height="25.4" y="201" clip-path="url(#clipPath2)" stroke="none"/>
      <rect x="686.4209" width="12.9711" height="20.335" y="203.5325" clip-path="url(#clipPath2)" stroke="none"/>
    </g>
    <g text-rendering="geometricPrecision" stroke-miterlimit="1.45" shape-rendering="geometricPrecision" font-family="sans-serif" transform="matrix(1,0,0,1,-525,-165)" stroke-linecap="butt">
      <text x="688.4208" xml:space="preserve" y="218.3534" clip-path="url(#clipPath2)" stroke="none">.c</text>
      <rect x="666.6064" y="201" clip-path="url(#clipPath2)" fill="none" width="52.6" height="25.4" stroke="gray"/>
    </g>
    <g fill="rgb(255,153,0)" text-rendering="geometricPrecision" shape-rendering="geometricPrecision" transform="matrix(1,0,0,1,-525,-165)" stroke="rgb(255,153,0)">
      <rect x="672.048" width="52.6" height="25.4" y="281.5028" clip-path="url(#clipPath2)" stroke="none"/>
    </g>
    <g text-rendering="geometricPrecision" stroke-miterlimit="1.45" shape-rendering="geometricPrecision" font-family="sans-serif" transform="matrix(1,0,0,1,-525,-165)" stroke-linecap="butt">
      <text x="683.0264" xml:space="preserve" y="298.8562" clip-path="url(#clipPath2)" stroke="none">LLVM</text>
    </g>
    <g fill="rgb(204,153,255)" text-rendering="geometricPrecision" shape-rendering="geometricPrecision" transform="matrix(1,0,0,1,-525,-165)" stroke="rgb(204,153,255)">
      <rect x="672.048" width="52.6" height="25.4" y="365.8276" clip-path="url(#clipPath2)" stroke="none"/>
    </g>
    <g text-rendering="geometricPrecision" stroke-miterlimit="1.45" shape-rendering="geometricPrecision" font-family="sans-serif" transform="matrix(1,0,0,1,-525,-165)" stroke-linecap="butt">
      <text x="686.2827" xml:space="preserve" y="383.181" clip-path="url(#clipPath2)" stroke="none">SMT</text>
    </g>
    <g fill="rgb(255,153,0)" text-rendering="geometricPrecision" shape-rendering="geometricPrecision" transform="matrix(1,0,0,1,-525,-165)" stroke="rgb(255,153,0)">
      <rect x="672.048" width="52.6" height="25.4" y="407.3" clip-path="url(#clipPath2)" stroke="none"/>
    </g>
    <g text-rendering="geometricPrecision" stroke-miterlimit="1.45" shape-rendering="geometricPrecision" font-family="sans-serif" transform="matrix(1,0,0,1,-525,-165)" stroke-linecap="butt">
      <text x="681.3953" xml:space="preserve" y="424.6534" clip-path="url(#clipPath2)" stroke="none">solver</text>
    </g>
    <g fill="rgb(204,153,255)" text-rendering="geometricPrecision" shape-rendering="geometricPrecision" transform="matrix(1,0,0,1,-525,-165)" stroke="rgb(204,153,255)">
      <path d="M672.048 331.602 L687.4542 322.8152 L709.2418 322.8152 L724.648 331.602 L724.648 344.0284 L709.2418 352.8152 L687.4542 352.8152 L672.048 344.0284 Z" fill-rule="evenodd" clip-path="url(#clipPath2)" stroke="none"/>
    </g>
    <g text-rendering="geometricPrecision" stroke-miterlimit="1.45" shape-rendering="geometricPrecision" font-family="sans-serif" transform="matrix(1,0,0,1,-525,-165)" stroke-linecap="butt">
      <text x="691.4278" xml:space="preserve" y="342.4686" clip-path="url(#clipPath2)" stroke="none">PS</text>
    </g>
    <g fill="rgb(255,153,0)" text-rendering="geometricPrecision" shape-rendering="geometricPrecision" transform="matrix(1,0,0,1,-525,-165)" stroke="rgb(255,153,0)">
      <rect x="880.7136" width="52.6" height="25.4" y="240.1904" clip-path="url(#clipPath2)" stroke="none"/>
    </g>
    <g text-rendering="geometricPrecision" stroke-miterlimit="1.45" shape-rendering="geometricPrecision" font-family="sans-serif" transform="matrix(1,0,0,1,-525,-165)" stroke-linecap="butt">
      <text x="891.83" xml:space="preserve" y="257.5439" clip-path="url(#clipPath2)" stroke="none">clang</text>
    </g>
    <g fill="rgb(255,153,0)" text-rendering="geometricPrecision" shape-rendering="geometricPrecision" transform="matrix(1,0,0,1,-525,-165)" stroke="rgb(255,153,0)">
      <rect x="880.7136" width="52.6" height="25.4" y="281.5028" clip-path="url(#clipPath2)" stroke="none"/>
    </g>
    <g text-rendering="geometricPrecision" stroke-miterlimit="1.45" shape-rendering="geometricPrecision" font-family="sans-serif" transform="matrix(1,0,0,1,-525,-165)" stroke-linecap="butt">
      <text x="891.692" xml:space="preserve" y="298.8562" clip-path="url(#clipPath2)" stroke="none">LLVM</text>
    </g>
    <g fill="white" text-rendering="geometricPrecision" shape-rendering="geometricPrecision" transform="matrix(1,0,0,1,-525,-165)" stroke="white">
      <rect x="880.7136" width="52.6" height="25.4" y="322.8152" clip-path="url(#clipPath2)" stroke="none"/>
    </g>
    <g text-rendering="geometricPrecision" stroke-miterlimit="1.45" shape-rendering="geometricPrecision" font-family="sans-serif" transform="matrix(1,0,0,1,-525,-165)" stroke-linecap="butt">
      <text x="895.8177" xml:space="preserve" y="340.1686" clip-path="url(#clipPath2)" stroke="none">.ELF</text>
    </g>
    <g stroke-linecap="butt" transform="matrix(1,0,0,1,-525,-165)" fill="gray" text-rendering="geometricPrecision" shape-rendering="geometricPrecision" stroke="gray" stroke-width="2" stroke-miterlimit="1.45">
      <rect fill="none" x="880.7136" width="52.6" height="25.4" y="322.8152" clip-path="url(#clipPath2)"/>
    </g>
    <g fill="rgb(255,153,0)" text-rendering="geometricPrecision" shape-rendering="geometricPrecision" transform="matrix(1,0,0,1,-525,-165)" stroke="rgb(255,153,0)">
      <rect x="558.3774" width="89.72" height="25.4" y="195.28" clip-path="url(#clipPath2)" stroke="none"/>
    </g>
    <g text-rendering="geometricPrecision" stroke-miterlimit="1.45" shape-rendering="geometricPrecision" font-family="sans-serif" transform="matrix(1,0,0,1,-525,-165)" stroke-linecap="butt">
      <text x="567.545" xml:space="preserve" y="212.6334" clip-path="url(#clipPath2)" stroke="none">build system</text>
    </g>
    <g fill="white" text-rendering="geometricPrecision" shape-rendering="geometricPrecision" transform="matrix(1,0,0,1,-525,-165)" stroke="white">
      <rect x="593.668" width="52.6" height="25.4" y="407.3" clip-path="url(#clipPath2)" stroke="none"/>
    </g>
    <g text-rendering="geometricPrecision" stroke-miterlimit="1.45" shape-rendering="geometricPrecision" font-family="sans-serif" transform="matrix(1,0,0,1,-525,-165)" stroke-linecap="butt">
      <text x="600.5687" xml:space="preserve" y="424.6534" clip-path="url(#clipPath2)" stroke="none">UNSAT</text>
    </g>
    <g fill="white" text-rendering="geometricPrecision" shape-rendering="geometricPrecision" transform="matrix(1,0,0,1,-525,-165)" stroke="white">
      <rect x="743.668" width="37.24" height="25.4" y="407.3" clip-path="url(#clipPath2)" stroke="none"/>
    </g>
    <g text-rendering="geometricPrecision" stroke-miterlimit="1.45" shape-rendering="geometricPrecision" font-family="sans-serif" transform="matrix(1,0,0,1,-525,-165)" stroke-linecap="butt">
      <text x="751.8298" xml:space="preserve" y="424.6534" clip-path="url(#clipPath2)" stroke="none">SAT</text>
    </g>
    <g fill="rgb(149,222,180)" text-rendering="geometricPrecision" shape-rendering="geometricPrecision" transform="matrix(1,0,0,1,-525,-165)" stroke="rgb(149,222,180)">
      <rect x="797.524" width="64.888" height="25.4" y="407.3" clip-path="url(#clipPath2)" stroke="none"/>
    </g>
    <g text-rendering="geometricPrecision" stroke-miterlimit="1.45" shape-rendering="geometricPrecision" font-family="sans-serif" transform="matrix(1,0,0,1,-525,-165)" stroke-linecap="butt">
      <text x="805.8013" xml:space="preserve" y="424.6534" clip-path="url(#clipPath2)" stroke="none">tassadar</text>
    </g>
    <g fill="white" text-rendering="geometricPrecision" shape-rendering="geometricPrecision" transform="matrix(1,0,0,1,-525,-165)" stroke="white">
      <rect x="785.108" width="89.72" height="25.4" y="454.708" clip-path="url(#clipPath2)" stroke="none"/>
    </g>
    <g text-rendering="geometricPrecision" stroke-miterlimit="1.45" shape-rendering="geometricPrecision" font-family="sans-serif" transform="matrix(1,0,0,1,-525,-165)" stroke-linecap="butt">
      <text x="793.0343" xml:space="preserve" y="472.0614" clip-path="url(#clipPath2)" stroke="none">defect report</text>
    </g>
    <g stroke-linecap="butt" transform="matrix(1,0,0,1,-525,-165)" fill="gray" text-rendering="geometricPrecision" shape-rendering="geometricPrecision" stroke="gray" stroke-width="2" stroke-miterlimit="1.45">
      <rect fill="none" x="785.108" width="89.72" height="25.4" y="454.708" clip-path="url(#clipPath2)"/>
    </g>
    <g fill="rgb(149,222,180)" text-rendering="geometricPrecision" shape-rendering="geometricPrecision" transform="matrix(1,0,0,1,-525,-165)" stroke="rgb(149,222,180)">
      <rect x="744.42" width="71.16" height="25.4" y="227.3" clip-path="url(#clipPath2)" stroke="none"/>
    </g>
    <g text-rendering="geometricPrecision" stroke-miterlimit="1.45" shape-rendering="geometricPrecision" font-family="sans-serif" transform="matrix(1,0,0,1,-525,-165)" stroke-linecap="butt">
      <text x="753.8663" xml:space="preserve" y="244.6534" clip-path="url(#clipPath2)" stroke="none">contracts</text>
    </g>
    <g fill="rgb(149,222,180)" text-rendering="geometricPrecision" shape-rendering="geometricPrecision" transform="matrix(1,0,0,1,-525,-165)" stroke="rgb(149,222,180)">
      <rect x="744.42" width="111.096" height="25.4" y="260.8466" clip-path="url(#clipPath2)" stroke="none"/>
    </g>
    <g text-rendering="geometricPrecision" stroke-miterlimit="1.45" shape-rendering="geometricPrecision" font-family="sans-serif" transform="matrix(1,0,0,1,-525,-165)" stroke-linecap="butt">
      <text x="750.4532" xml:space="preserve" y="278.2" clip-path="url(#clipPath2)" stroke="none">meta information</text>
    </g>
    <g fill="rgb(149,222,180)" text-rendering="geometricPrecision" shape-rendering="geometricPrecision" transform="matrix(1,0,0,1,-525,-165)" stroke="rgb(149,222,180)">
      <rect x="743.808" width="71.16" height="25.4" y="308" clip-path="url(#clipPath2)" stroke="none"/>
    </g>
    <g text-rendering="geometricPrecision" stroke-miterlimit="1.45" shape-rendering="geometricPrecision" font-family="sans-serif" transform="matrix(1,0,0,1,-525,-165)" stroke-linecap="butt">
      <text x="761.6017" xml:space="preserve" y="325.3535" clip-path="url(#clipPath2)" stroke="none">slicing</text>
    </g>
    <g fill="rgb(149,222,180)" text-rendering="geometricPrecision" shape-rendering="geometricPrecision" transform="matrix(1,0,0,1,-525,-165)" stroke="rgb(149,222,180)">
      <rect x="743.808" width="105.08" height="25.4" y="338.0791" clip-path="url(#clipPath2)" stroke="none"/>
    </g>
    <g text-rendering="geometricPrecision" stroke-miterlimit="1.45" shape-rendering="geometricPrecision" font-family="sans-serif" transform="matrix(1,0,0,1,-525,-165)" stroke-linecap="butt">
      <text x="751.8944" xml:space="preserve" y="355.4326" clip-path="url(#clipPath2)" stroke="none">approximations</text>
    </g>
    <g fill="rgb(149,222,180)" text-rendering="geometricPrecision" shape-rendering="geometricPrecision" transform="matrix(1,0,0,1,-525,-165)" stroke="rgb(149,222,180)">
      <rect x="743.808" width="114.5008" height="25.4" y="368.1582" clip-path="url(#clipPath2)" stroke="none"/>
    </g>
    <g text-rendering="geometricPrecision" stroke-miterlimit="1.45" shape-rendering="geometricPrecision" font-family="sans-serif" transform="matrix(1,0,0,1,-525,-165)" stroke-linecap="butt">
      <text x="751.1298" xml:space="preserve" y="385.5116" clip-path="url(#clipPath2)" stroke="none">callsite expansion</text>
    </g>
    <g fill="rgb(149,222,180)" text-rendering="geometricPrecision" shape-rendering="geometricPrecision" transform="matrix(1,0,0,1,-525,-165)" stroke="rgb(149,222,180)">
      <rect x="556.548" width="89.72" height="25.4" y="257.6" clip-path="url(#clipPath2)" stroke="none"/>
    </g>
    <g text-rendering="geometricPrecision" stroke-miterlimit="1.45" shape-rendering="geometricPrecision" font-family="sans-serif" transform="matrix(1,0,0,1,-525,-165)" stroke-linecap="butt">
      <text x="560.4085" xml:space="preserve" y="274.9534" clip-path="url(#clipPath2)" stroke="none">transmogrifier</text>
    </g>
    <g fill="rgb(149,222,180)" text-rendering="geometricPrecision" shape-rendering="geometricPrecision" transform="matrix(1,0,0,1,-525,-165)" stroke="rgb(149,222,180)">
      <rect x="556.548" width="89.72" height="25.4" y="288.2" clip-path="url(#clipPath2)" stroke="none"/>
    </g>
    <g text-rendering="geometricPrecision" stroke-miterlimit="1.45" shape-rendering="geometricPrecision" font-family="sans-serif" transform="matrix(1,0,0,1,-525,-165)" stroke-linecap="butt">
      <text x="579.2802" xml:space="preserve" y="305.5534" clip-path="url(#clipPath2)" stroke="none">deroller</text>
    </g>
    <g fill="rgb(149,222,180)" text-rendering="geometricPrecision" shape-rendering="geometricPrecision" transform="matrix(1,0,0,1,-525,-165)" stroke="rgb(149,222,180)">
      <rect x="556.548" width="89.72" height="25.4" y="318.4" clip-path="url(#clipPath2)" stroke="none"/>
    </g>
    <g text-rendering="geometricPrecision" stroke-miterlimit="1.45" shape-rendering="geometricPrecision" font-family="sans-serif" transform="matrix(1,0,0,1,-525,-165)" stroke-linecap="butt">
      <text x="590.6559" xml:space="preserve" y="335.7534" clip-path="url(#clipPath2)" stroke="none">PSA</text>
    </g>
    <g stroke-linecap="butt" transform="matrix(1,0,0,1,-525,-165)" fill="rgb(153,51,102)" text-rendering="geometricPrecision" shape-rendering="geometricPrecision" stroke="rgb(153,51,102)" stroke-width="2" stroke-miterlimit="1.45">
      <path fill="none" d="M698.348 226.4362 L698.348 235.6904" clip-path="url(#clipPath2)"/>
      <path d="M698.348 240.1904 L705.098 231.1904 L698.348 234.5654 L691.598 231.1904 Z" clip-path="url(#clipPath2)" stroke="none"/>
      <path fill="none" d="M698.348 265.5904 L698.348 277.0028" clip-path="url(#clipPath2)"/>
      <path d="M698.348 281.5028 L705.098 272.5028 L698.348 275.8778 L691.598 272.5028 Z" clip-path="url(#clipPath2)" stroke="none"/>
      <path fill="none" d="M698.348 391.2276 L698.348 402.8" clip-path="url(#clipPath2)"/>
      <path d="M698.348 407.3 L705.098 398.3 L698.348 401.675 L691.598 398.3 Z" clip-path="url(#clipPath2)" stroke="none"/>
      <path fill="none" d="M698.348 306.9028 L698.348 318.3118" clip-path="url(#clipPath2)"/>
      <path d="M698.348 322.8118 L705.098 313.8118 L698.348 317.1868 L691.598 313.8118 Z" clip-path="url(#clipPath2)" stroke="none"/>
      <path fill="none" d="M698.348 352.804 L698.348 361.3276" clip-path="url(#clipPath2)"/>
      <path d="M698.348 365.8276 L705.098 356.8276 L698.348 360.2026 L691.598 356.8276 Z" clip-path="url(#clipPath2)" stroke="none"/>
      <path fill="none" d="M730.7372 210 L907.0136 210 L907.0136 235.6904" clip-path="url(#clipPath2)"/>
      <path d="M907.0136 240.1904 L913.7636 231.1904 L907.0136 234.5654 L900.2636 231.1904 Z" clip-path="url(#clipPath2)" stroke="none"/>
      <path fill="none" d="M907.0136 265.5904 L907.0136 277.0028" clip-path="url(#clipPath2)"/>
      <path d="M907.0136 281.5028 L913.7636 272.5028 L907.0136 275.8778 L900.2636 272.5028 Z" clip-path="url(#clipPath2)" stroke="none"/>
      <path fill="none" d="M907.0136 306.9028 L907.0136 318.3152" clip-path="url(#clipPath2)"/>
      <path d="M907.0136 322.8152 L913.7636 313.8152 L907.0136 317.1902 L900.2636 313.8152 Z" clip-path="url(#clipPath2)" stroke="none"/>
      <path fill="none" d="M672.048 420 L650.768 420" clip-path="url(#clipPath2)"/>
      <path d="M646.268 420 L655.268 426.75 L651.893 420 L655.268 413.25 Z" clip-path="url(#clipPath2)" stroke="none"/>
      <path fill="none" d="M593.668 420 L560.1206 420" clip-path="url(#clipPath2)"/>
      <path d="M555.6206 420 L564.6206 426.75 L561.2456 420 L564.6206 413.25 Z" clip-path="url(#clipPath2)" stroke="none"/>
      <path fill="none" d="M724.648 420 L739.168 420" clip-path="url(#clipPath2)"/>
      <path d="M743.668 420 L734.668 413.25 L738.043 420 L734.668 426.75 Z" clip-path="url(#clipPath2)" stroke="none"/>
      <path fill="none" d="M780.908 420 L793.024 420" clip-path="url(#clipPath2)"/>
      <path d="M797.524 420 L788.524 413.25 L791.899 420 L788.524 426.75 Z" clip-path="url(#clipPath2)" stroke="none"/>
      <path fill="none" d="M775.858 432.7 L796.077 451.6228" clip-path="url(#clipPath2)"/>
      <path d="M799.3625 454.6977 L797.4039 443.6195 L795.2556 450.8541 L788.1791 453.4762 Z" clip-path="url(#clipPath2)" stroke="none"/>
      <path fill="none" d="M829.968 432.7 L829.968 450.208" clip-path="url(#clipPath2)"/>
      <path d="M829.968 454.708 L836.718 445.708 L829.968 449.083 L823.218 445.708 Z" clip-path="url(#clipPath2)" stroke="none"/>
    </g>
    <g stroke-linecap="butt" transform="matrix(1,0,0,1,-525,-165)" fill="rgb(153,153,153)" text-rendering="geometricPrecision" shape-rendering="geometricPrecision" stroke-dasharray="6,2" stroke="rgb(153,153,153)" stroke-miterlimit="1.45">
      <path fill="none" d="M874.968 180 L874.8144 411.596" clip-path="url(#clipPath2)"/>
      <path fill="none" d="M724.6486 241.1748 L739.968 220.5154 L768.223 220.5154" clip-path="url(#clipPath2)"/>
      <path fill="none" d="M724.4199 265.6136 L739.968 294.6712 L768.2166 294.6712" clip-path="url(#clipPath2)"/>
      <path fill="none" d="M716.1279 326.7177 L739.968 304.619 L768.2234 304.619" clip-path="url(#clipPath2)"/>
      <path fill="none" d="M719.128 347.1595 L739.968 397.5202 L769.968 397.5202" clip-path="url(#clipPath2)"/>
      <path fill="none" d="M684.1159 281.5028 L649.968 251.0309 L604.968 251.0309" clip-path="url(#clipPath2)"/>
      <path fill="none" d="M687.339 306.9028 L649.968 350.0139 L604.9952 350.0139" clip-path="url(#clipPath2)"/>
    </g>
  </g>
</svg>
